<svg id="visual" viewBox="0 0 960 540" width="960" height="540" xmlns="http://www.w3.org/2000/svg" xmlns:xlink="http://www.w3.org/1999/xlink" version="1.1"><rect x="0" y="0" width="960" height="540" fill="#f8f1b1"></rect><path d="M0 265L14.5 259.8C29 254.7 58 244.3 87.2 233.3C116.3 222.3 145.7 210.7 174.8 212.7C204 214.7 233 230.3 262 234.7C291 239 320 232 349 223.2C378 214.3 407 203.7 436.2 203.3C465.3 203 494.7 213 523.8 219.3C553 225.7 582 228.3 611 234.3C640 240.3 669 249.7 698 247.7C727 245.7 756 232.3 785.2 223.7C814.3 215 843.7 211 872.8 212.2C902 213.3 931 219.7 945.5 222.8L960 226L960 0L945.5 0C931 0 902 0 872.8 0C843.7 0 814.3 0 785.2 0C756 0 727 0 698 0C669 0 640 0 611 0C582 0 553 0 523.8 0C494.7 0 465.3 0 436.2 0C407 0 378 0 349 0C320 0 291 0 262 0C233 0 204 0 174.8 0C145.7 0 116.3 0 87.2 0C58 0 29 0 14.5 0L0 0Z" fill="#c62368"></path><path d="M0 174L14.5 176.2C29 178.3 58 182.7 87.2 174.8C116.3 167 145.7 147 174.8 136C204 125 233 123 262 121.5C291 120 320 119 349 128.5C378 138 407 158 436.2 168.2C465.3 178.3 494.7 178.7 523.8 182.5C553 186.3 582 193.7 611 186.7C640 179.7 669 158.3 698 149.3C727 140.3 756 143.7 785.2 145C814.3 146.3 843.7 145.7 872.8 152.8C902 160 931 175 945.5 182.5L960 190L960 0L945.5 0C931 0 902 0 872.8 0C843.7 0 814.3 0 785.2 0C756 0 727 0 698 0C669 0 640 0 611 0C582 0 553 0 523.8 0C494.7 0 465.3 0 436.2 0C407 0 378 0 349 0C320 0 291 0 262 0C233 0 204 0 174.8 0C145.7 0 116.3 0 87.2 0C58 0 29 0 14.5 0L0 0Z" fill="#98297d"></path><path d="M0 104L14.5 103.8C29 103.7 58 103.3 87.2 108C116.3 112.7 145.7 122.3 174.8 117.8C204 113.3 233 94.7 262 89.5C291 84.3 320 92.7 349 100.7C378 108.7 407 116.3 436.2 121C465.3 125.7 494.7 127.3 523.8 127.3C553 127.3 582 125.7 611 126.7C640 127.7 669 131.3 698 136C727 140.7 756 146.3 785.2 141.7C814.3 137 843.7 122 872.8 118.7C902 115.3 931 123.7 945.5 127.8L960 132L960 0L945.5 0C931 0 902 0 872.8 0C843.7 0 814.3 0 785.2 0C756 0 727 0 698 0C669 0 640 0 611 0C582 0 553 0 523.8 0C494.7 0 465.3 0 436.2 0C407 0 378 0 349 0C320 0 291 0 262 0C233 0 204 0 174.8 0C145.7 0 116.3 0 87.2 0C58 0 29 0 14.5 0L0 0Z" fill="#5d3383"></path><path d="M0 53L14.5 57.5C29 62 58 71 87.2 76.5C116.3 82 145.7 84 174.8 80.2C204 76.3 233 66.7 262 64.3C291 62 320 67 349 67.2C378 67.3 407 62.7 436.2 56.3C465.3 50 494.7 42 523.8 41C553 40 582 46 611 49.2C640 52.3 669 52.7 698 55.2C727 57.7 756 62.3 785.2 62.7C814.3 63 843.7 59 872.8 59.2C902 59.3 931 63.7 945.5 65.8L960 68L960 0L945.5 0C931 0 902 0 872.8 0C843.7 0 814.3 0 785.2 0C756 0 727 0 698 0C669 0 640 0 611 0C582 0 553 0 523.8 0C494.7 0 465.3 0 436.2 0C407 0 378 0 349 0C320 0 291 0 262 0C233 0 204 0 174.8 0C145.7 0 116.3 0 87.2 0C58 0 29 0 14.5 0L0 0Z" fill="#003478"></path></svg>